<svg width="869" height="407" viewBox="0 0 869 407" fill="none" xmlns="http://www.w3.org/2000/svg">
<path d="M0 406.5H246C313 401 332.5 374.5 382.5 303C425.479 247.365 456 230 517 227H576.5C636 223 660.5 183 668.5 129C675 59.5 672.5 20 723 1M5 406.5H251C318 401 337.5 374.5 387.5 303C430.479 247.365 461 230 522 227H581.5C641 223 665.5 183 673.5 129C680 59.5 677.5 20 728 1M10 406.5H256C323 401 342.5 374.5 392.5 303C435.479 247.365 466 230 527 227H586.5C646 223 670.5 183 678.5 129C685 59.5 682.5 20 733 1M15 406.5H261C328 401 347.5 374.5 397.5 303C440.479 247.365 471 230 532 227H591.5C651 223 675.5 183 683.5 129C690 59.5 687.5 20 738 1M20 406.5H266C333 401 352.5 374.5 402.5 303C445.479 247.365 476 230 537 227H596.5C656 223 680.5 183 688.5 129C695 59.5 692.5 20 743 1M25 406.5H271C338 401 357.5 374.5 407.5 303C450.479 247.365 481 230 542 227H601.5C661 223 685.5 183 693.5 129C700 59.5 697.5 20 748 1M30 406.5H276C343 401 362.5 374.5 412.5 303C455.479 247.365 486 230 547 227H606.5C666 223 690.5 183 698.5 129C705 59.5 702.5 20 753 1M35 406.5H281C348 401 367.5 374.5 417.5 303C460.479 247.365 491 230 552 227H611.5C671 223 695.5 183 703.5 129C710 59.5 707.5 20 758 1M40 406.5H286C353 401 372.5 374.5 422.5 303C465.479 247.365 496 230 557 227H616.5C676 223 700.5 183 708.5 129C715 59.5 712.5 20 763 1M45 406.5H291C358 401 377.5 374.5 427.5 303C470.479 247.365 501 230 562 227H621.5C681 223 705.5 183 713.5 129C720 59.5 717.5 20 768 1M50 406.5H296C363 401 382.5 374.5 432.5 303C475.479 247.365 506 230 567 227H626.5C686 223 710.5 183 718.5 129C725 59.5 722.5 20 773 1M55 406.5H301C368 401 387.5 374.5 437.5 303C480.479 247.365 511 230 572 227H631.5C691 223 715.5 183 723.5 129C730 59.5 727.5 20 778 1M60 406.5H306C373 401 392.5 374.5 442.5 303C485.479 247.365 516 230 577 227H636.5C696 223 720.5 183 728.5 129C735 59.5 732.5 20 783 1M65 406.5H311C378 401 397.5 374.5 447.5 303C490.479 247.365 521 230 582 227H641.5C701 223 725.5 183 733.5 129C740 59.5 737.5 20 788 1M70 406.5H316C383 401 402.5 374.5 452.5 303C495.479 247.365 526 230 587 227H646.5C706 223 730.5 183 738.5 129C745 59.5 742.5 20 793 1M75 406.5H321C388 401 407.5 374.5 457.5 303C500.479 247.365 531 230 592 227H651.5C711 223 735.5 183 743.5 129C750 59.5 747.5 20 798 1M80 406.5H326C393 401 412.5 374.5 462.5 303C505.479 247.365 536 230 597 227H656.5C716 223 740.5 183 748.5 129C755 59.5 752.5 20 803 1M85 406.5H331C398 401 417.5 374.5 467.5 303C510.479 247.365 541 230 602 227H661.5C721 223 745.5 183 753.5 129C760 59.5 757.5 20 808 1M90 406.5H336C403 401 422.5 374.5 472.5 303C515.479 247.365 546 230 607 227H666.5C726 223 750.5 183 758.5 129C765 59.5 762.5 20 813 1M95 406.5H341C408 401 427.5 374.5 477.5 303C520.479 247.365 551 230 612 227H671.5C731 223 755.5 183 763.5 129C770 59.5 767.5 20 818 1M100 406.5H346C413 401 432.5 374.5 482.5 303C525.479 247.365 556 230 617 227H676.5C736 223 760.5 183 768.5 129C775 59.5 772.5 20 823 1M105 406.5H351C418 401 437.5 374.5 487.5 303C530.479 247.365 561 230 622 227H681.5C741 223 765.5 183 773.5 129C780 59.5 777.5 20 828 1M110 406.5H356C423 401 442.5 374.5 492.5 303C535.479 247.365 566 230 627 227H686.5C746 223 770.5 183 778.5 129C785 59.5 782.5 20 833 1M115 406.5H361C428 401 447.5 374.5 497.5 303C540.479 247.365 571 230 632 227H691.5C751 223 775.5 183 783.5 129C790 59.5 787.5 20 838 1M120 406.5H366C433 401 452.5 374.5 502.5 303C545.479 247.365 576 230 637 227H696.5C756 223 780.5 183 788.5 129C795 59.5 792.5 20 843 1M125 406.5H371C438 401 457.5 374.5 507.5 303C550.479 247.365 581 230 642 227H701.5C761 223 785.5 183 793.5 129C800 59.5 797.5 20 848 1M130 406.5H376C443 401 462.5 374.5 512.5 303C555.479 247.365 586 230 647 227H706.5C766 223 790.5 183 798.5 129C805 59.5 802.5 20 853 1M135 406.5H381C448 401 467.5 374.5 517.5 303C560.479 247.365 591 230 652 227H711.5C771 223 795.5 183 803.5 129C810 59.5 807.5 20 858 1M140 406.5H386C453 401 472.5 374.5 522.5 303C565.479 247.365 596 230 657 227H716.5C776 223 800.5 183 808.5 129C815 59.5 812.5 20 863 1M145 406.5H391C458 401 477.5 374.5 527.5 303C570.479 247.365 601 230 662 227H721.5C781 223 805.5 183 813.5 129C820 59.5 817.5 20 868 1" stroke="url(#paint0_linear_15_4)" stroke-dasharray="0.2 3"/>
<defs>
<linearGradient id="paint0_linear_15_4" x1="206" y1="284" x2="858.5" y2="281.5" gradientUnits="userSpaceOnUse">
<stop stop-color="#A038B2"/>
<stop offset="1" stop-color="#13F196"/>
</linearGradient>
</defs>
</svg>
